<?xml version="1.0" encoding="UTF-8" standalone="no"?>
<!-- Created with Inkscape (http://www.inkscape.org/) -->

<svg
   xmlns:dc="http://purl.org/dc/elements/1.1/"
   xmlns:cc="http://creativecommons.org/ns#"
   xmlns:rdf="http://www.w3.org/1999/02/22-rdf-syntax-ns#"
   xmlns:svg="http://www.w3.org/2000/svg"
   xmlns="http://www.w3.org/2000/svg"
   xmlns:xlink="http://www.w3.org/1999/xlink"
   xmlns:sodipodi="http://sodipodi.sourceforge.net/DTD/sodipodi-0.dtd"
   xmlns:inkscape="http://www.inkscape.org/namespaces/inkscape"
   width="793.70081"
   height="1122.5197"
   viewBox="0 0 210 297"
   version="1.1"
   id="svg8"
   inkscape:version="0.92.4 (5da689c313, 2019-01-14)"
   sodipodi:docname="GedGud Logo.svg">
  <defs
     id="defs2">
    <linearGradient
       inkscape:collect="always"
       id="linearGradient937">
      <stop
         style="stop-color:#ffcc00;stop-opacity:1"
         offset="0"
         id="stop933" />
      <stop
         style="stop-color:#ff9500;stop-opacity:1"
         offset="1"
         id="stop935" />
    </linearGradient>
    <linearGradient
       inkscape:collect="always"
       xlink:href="#linearGradient937"
       id="linearGradient939"
       x1="-213.43759"
       y1="486.8367"
       x2="-213.43759"
       y2="210.18307"
       gradientUnits="userSpaceOnUse" />
    <linearGradient
       inkscape:collect="always"
       xlink:href="#linearGradient937"
       id="linearGradient969"
       gradientUnits="userSpaceOnUse"
       x1="-213.43759"
       y1="486.8367"
       x2="-213.43759"
       y2="210.18307" />
    <linearGradient
       inkscape:collect="always"
       xlink:href="#linearGradient937"
       id="linearGradient971"
       gradientUnits="userSpaceOnUse"
       x1="-213.43759"
       y1="486.8367"
       x2="-213.43759"
       y2="210.18307" />
  </defs>
  <sodipodi:namedview
     id="base"
     pagecolor="#000000"
     bordercolor="#666666"
     borderopacity="1.0"
     inkscape:pageopacity="0"
     inkscape:pageshadow="2"
     inkscape:zoom="0.21255626"
     inkscape:cx="-1237.4613"
     inkscape:cy="52.314967"
     inkscape:document-units="px"
     inkscape:current-layer="layer1"
     showgrid="false"
     units="px"
     showborder="false"
     inkscape:window-width="1920"
     inkscape:window-height="1001"
     inkscape:window-x="-9"
     inkscape:window-y="41"
     inkscape:window-maximized="1"
     inkscape:snap-bbox="true"
     inkscape:snap-bbox-edge-midpoints="true"
     inkscape:bbox-nodes="true"
     inkscape:bbox-paths="true" />
  <metadata
     id="metadata5">
    <rdf:RDF>
      <cc:Work
         rdf:about="">
        <dc:format>image/svg+xml</dc:format>
        <dc:type
           rdf:resource="http://purl.org/dc/dcmitype/StillImage" />
        <dc:title />
      </cc:Work>
    </rdf:RDF>
  </metadata>
  <g
     inkscape:label="Layer 1"
     inkscape:groupmode="layer"
     id="layer1">
    <rect
       style="opacity:1;fill:#1a1a1a;fill-opacity:1;stroke:none;stroke-width:0;stroke-linecap:round;stroke-linejoin:miter;stroke-miterlimit:4;stroke-dasharray:none;stroke-dashoffset:100;stroke-opacity:1;paint-order:markers stroke fill"
       id="rect941"
       width="529.16669"
       height="529.16669"
       x="-637.91003"
       y="124.51419"
       inkscape:export-xdpi="96"
       inkscape:export-ydpi="96" />
    <path
       style="fill:#ffffff;fill-opacity:1;stroke-width:4.52994013"
       inkscape:connector-curvature="0"
       d="m -450.89544,381.29469 h -17.86608 v -17.87515 a 7.927395,7.927395 0 0 0 -15.85479,0 v 17.87515 h -17.87514 a 7.9274,7.9274 0 0 0 0,15.8548 h 17.87514 v 17.87513 a 7.927395,7.927395 0 0 0 15.85479,0 v -17.87513 h 17.86608 a 7.9274,7.9274 0 0 0 0,-15.8548 z"
       id="path831"
       inkscape:export-xdpi="96"
       inkscape:export-ydpi="96" />
    <g
       id="g872"
       transform="matrix(1.74172,0,0,1.74172,-700.63577,-33.690138)"
       style="fill:#ffffff;fill-opacity:1"
       inkscape:export-xdpi="96"
       inkscape:export-ydpi="96">
      <path
         id="path833"
         d="m 247.58279,237.16898 a 7.5166978,7.5166978 0 1 0 -7.5167,-7.51115 7.5250219,7.5250219 0 0 0 7.5167,7.51115 z"
         inkscape:connector-curvature="0"
         style="fill:#ffffff;fill-opacity:1;stroke-width:2.77471304" />
      <path
         id="path835"
         d="m 247.58279,248.42322 a 7.5166978,7.5166978 0 1 0 7.50837,7.51669 7.5250219,7.5250219 0 0 0 -7.50837,-7.51669 z"
         inkscape:connector-curvature="0"
         style="fill:#ffffff;fill-opacity:1;stroke-width:2.77471304" />
      <path
         id="path837"
         d="m 234.43897,235.2794 a 7.5166978,7.5166978 0 1 0 7.5167,7.5167 7.5250219,7.5250219 0 0 0 -7.5167,-7.5167 z"
         inkscape:connector-curvature="0"
         style="fill:#ffffff;fill-opacity:1;stroke-width:2.77471304" />
      <path
         id="path839"
         d="m 260.72661,235.2794 a 7.5166978,7.5166978 0 1 0 7.51669,7.5167 7.5250219,7.5250219 0 0 0 -7.51669,-7.5167 z"
         inkscape:connector-curvature="0"
         style="fill:#ffffff;fill-opacity:1;stroke-width:2.77471304" />
    </g>
    <g
       id="g931"
       style="fill:url(#linearGradient939);fill-opacity:1"
       transform="matrix(0.68966109,0,0,0.68966109,-233.62938,148.74382)"
       inkscape:export-xdpi="96"
       inkscape:export-ydpi="96">
      <path
         inkscape:connector-curvature="0"
         id="path894"
         d="m -359.30644,486.73847 c -0.77611,-0.0758 -3.39549,-0.30913 -5.82083,-0.5185 -2.42535,-0.20937 -6.79097,-0.78112 -9.70139,-1.27056 -48.34978,-8.1309 -88.91827,-41.40119 -106.51114,-87.34997 -12.57293,-32.83779 -11.86793,-70.99862 1.90463,-103.09599 10.79976,-25.16916 28.93662,-46.8664 51.55033,-61.66998 18.57194,-12.15772 38.45908,-19.34352 60.87722,-21.9967 7.373,-0.87259 23.69886,-0.87126 30.80813,0.002 27.253,3.34957 50.82359,13.20323 71.96667,30.08561 5.96165,4.76027 16.03031,14.79527 20.66292,20.59384 12.70838,15.9069 21.27075,32.94324 26.41831,52.56389 1.1587,4.41653 1.20612,4.79453 0.6528,5.20347 -0.46353,0.34258 -5.87525,0.4399 -24.25354,0.43616 -13.01129,-0.003 -23.9979,-0.0963 -24.41469,-0.20814 -0.57652,-0.15468 -1.11245,-1.10297 -2.24025,-3.96393 -3.18655,-8.08358 -8.29647,-16.86387 -13.76537,-23.65285 -3.55717,-4.41579 -11.2589,-11.89542 -15.5904,-15.1408 -10.07538,-7.54899 -21.83927,-13.12887 -33.61562,-15.94464 -6.67221,-1.59536 -11.10518,-2.15486 -18.7433,-2.36568 -9.40573,-0.25961 -16.1589,0.44485 -24.64837,2.5712 -27.80718,6.96489 -51.10564,27.27667 -61.6773,53.7708 -4.60008,11.52852 -6.39205,20.97335 -6.39205,33.69028 0,4.47245 0.19633,9.18122 0.46334,11.1125 2.82485,20.43231 11.64322,38.38857 25.81019,52.55554 13.82797,13.82797 31.28931,22.58621 51.14443,25.65297 5.02069,0.77548 20.08105,0.88154 24.51806,0.17267 21.01821,-3.35796 37.09615,-11.17481 51.286,-24.9345 13.86621,-13.44585 22.83629,-30.32456 25.96663,-48.86057 0.31128,-1.84326 0.64905,-3.6292 0.75059,-3.96875 0.17346,-0.58007 1.62952,-0.61736 24.11198,-0.61736 21.4932,0 23.94916,0.0568 24.1415,0.55802 0.33895,0.88328 0.23843,125.15187 -0.10167,125.68868 -0.43379,0.68471 -8.37967,0.61823 -12.91336,-0.10805 -12.00027,-1.92238 -22.96247,-7.5855 -28.86371,-14.91111 -3.49156,-4.33431 -5.63666,-9.16022 -6.10542,-13.73559 -0.12745,-1.24398 -0.33392,-2.32494 -0.45883,-2.40214 -0.12491,-0.0772 -1.72971,1.04238 -3.56624,2.48794 -20.28838,15.9694 -44.33882,25.82219 -70.5433,28.89961 -4.46658,0.52455 -19.98879,0.97473 -23.10695,0.67016 z"
         style="fill:url(#linearGradient969);fill-opacity:1;stroke-width:0.35277778" />
      <path
         inkscape:connector-curvature="0"
         id="path892"
         d="m -63.495422,486.58588 c -28.48205,-2.37739 -54.125568,-12.32388 -75.841828,-29.41718 -1.83652,-1.44556 -3.46371,-2.55131 -3.61597,-2.4572 -0.15226,0.0941 -0.27958,0.67766 -0.28296,1.2968 -0.012,2.19744 -1.06948,6.1037 -2.40588,8.88682 -4.85642,10.1136 -17.43887,18.2369 -32.3366,20.87671 -4.27533,0.75757 -12.78831,0.82207 -13.2448,0.10034 -0.36001,-0.56919 -0.48155,-124.78884 -0.12301,-125.7232 0.19235,-0.50125 2.6483,-0.55802 24.14151,-0.55802 22.48245,0 23.93851,0.0373 24.11197,0.61736 0.10156,0.33955 0.43931,2.12549 0.75061,3.96875 5.13125,30.38428 26.42982,56.48198 55.570008,68.09138 6.6017,2.63011 13.03203,4.32164 21.6826,5.70369 4.46172,0.71282 19.50547,0.60303 24.51806,-0.17893 19.95727,-3.11334 37.3154201,-11.81771 51.14441,-25.64671 25.60719,-25.60717 33.36093,-63.57681 19.8815,-97.35832 -11.44859,-28.69188 -37.6647399,-49.88877 -68.24708,-55.18075 -8.45273,-1.46266 -20.87912,-1.63116 -28.88439,-0.39166 -15.02346,2.32617 -29.27738,8.34315 -41.553128,17.54077 -4.33147,3.24538 -12.03321,10.72501 -15.59037,15.1408 -5.46891,6.78898 -10.57882,15.56927 -13.76539,23.65285 -1.1278,2.86097 -1.6637,3.80925 -2.24025,3.96393 -0.41677,0.11183 -11.4034,0.20549 -24.41468,0.20814 -18.37829,0.004 -23.79001,-0.0936 -24.25354,-0.43616 -0.55332,-0.40894 -0.5059,-0.78693 0.6528,-5.20347 6.45711,-24.61222 18.31608,-45.34464 36.13003,-63.16429 22.63718,-22.64442 50.45158,-36.08873 82.917858,-40.07905 7.10925,-0.87377 23.43514,-0.8751 30.80812,-0.002 28.5375401,3.37741 54.2065,14.61481 75.5408,33.07037 4.63236,4.00731 12.65256,12.24627 16.45709,16.90604 14.91484,18.2675 24.80507,39.54423 29.02532,62.44167 1.71771,9.3197 2.13515,14.25133 2.13515,25.22361 0,13.01316 -1.07664,22.27174 -3.89721,33.51388 -7.26997,28.97656 -24.23618,55.49027 -47.41277,74.09367 -20.926,16.79687 -45.16673,26.91629 -71.78844,29.96842 -5.83113,0.66853 -20.31958,0.96966 -25.56954,0.53145 z"
         style="fill:url(#linearGradient971);fill-opacity:1;stroke-width:0.35277778" />
    </g>
    <g
       style="fill:#ffffff;fill-opacity:1"
       transform="matrix(3.2015582,0,0,3.2015582,-835.24822,-586.66581)"
       id="g850">
      <path
         style="fill:#ff9500;fill-opacity:1;stroke-width:2.77471304"
         inkscape:connector-curvature="0"
         d="m 247.58279,237.16898 a 7.5166978,7.5166978 0 1 0 -7.5167,-7.51115 7.5250219,7.5250219 0 0 0 7.5167,7.51115 z"
         id="path842" />
      <path
         style="fill:#ffcc00;fill-opacity:1;stroke-width:2.77471304"
         inkscape:connector-curvature="0"
         d="m 247.58279,248.42322 a 7.5166978,7.5166978 0 1 0 7.50837,7.51669 7.5250219,7.5250219 0 0 0 -7.50837,-7.51669 z"
         id="path844" />
      <path
         style="fill:#ffffff;fill-opacity:1;stroke-width:2.77471304"
         inkscape:connector-curvature="0"
         d="m 234.43897,235.2794 a 7.5166978,7.5166978 0 1 0 7.5167,7.5167 7.5250219,7.5250219 0 0 0 -7.5167,-7.5167 z"
         id="path846" />
      <path
         style="fill:#1a1a1a;fill-opacity:1;stroke-width:2.77471304"
         inkscape:connector-curvature="0"
         d="m 260.72661,235.2794 a 7.5166978,7.5166978 0 1 0 7.51669,7.5167 7.5250219,7.5250219 0 0 0 -7.51669,-7.5167 z"
         id="path848" />
    </g>
  </g>
</svg>
